<svg xmlns="http://www.w3.org/2000/svg" version="1.1" xmlns:xlink="http://www.w3.org/1999/xlink" width="564" height="564"><svg viewBox="0 0 564 564" xmlns="http://www.w3.org/2000/svg">
    <path d="M528.44 177.06c4.481 2.252 7.252 5.545 9.563 9.938.68 2.998.677 5.884.634 8.95l.024 2.661c.02 2.931.004 5.861-.012 8.793.007 2.106.016 4.212.027 6.318.023 5.713.014 11.425-.002 17.138-.013 5.982 0 11.964.007 17.946.01 10.047-.003 20.093-.027 30.14-.027 11.608-.018 23.217.01 34.826.022 9.973.025 19.944.012 29.916-.007 5.954-.009 11.907.008 17.861.014 5.6.004 11.197-.024 16.796-.007 2.053-.005 4.106.006 6.158a612.2 612.2 0 0 1-.029 8.418l.034 2.45c-.12 6.978-2.95 11.58-7.527 16.711-5.288 4.49-10.933 7.992-16.954 11.416a4926.375 4926.375 0 0 0-5.89 3.418l-2.803 1.623c-3.739 2.188-7.377 4.508-11.014 6.862-8.187 5.273-16.559 10.257-24.916 15.255a891.696 891.696 0 0 0-11.44 6.968 1011.652 1011.652 0 0 1-13.18 8l-3.329 1.99a4167.923 4167.923 0 0 1-6.596 3.93c-5.48 3.272-10.853 6.636-16.138 10.212-2.223 1.467-4.508 2.723-6.882 3.93-5.805 3.09-11.236 6.666-16.725 10.275-4.815 3.146-9.708 5.972-14.802 8.646-2.627 1.478-5.027 3.13-7.473 4.89-4.2 3.024-8.523 5.49-13.09 7.911-6.623 3.618-12.979 7.722-19.344 11.773-9.629 6.067-16.91 10.273-28.566 8.817-5.088-1.304-8.048-2.627-11.092-7.017-2.426-4.397-2.468-8.34-2.416-13.275l-.02-2.773c-.015-3.055-.002-6.11.01-9.166a3440.775 3440.775 0 0 1-.02-24.448c.01-6.234.001-12.468-.005-18.702-.008-11.141.005-22.281.025-33.422.018-10.092.015-20.183-.004-30.274-.021-11.73-.03-23.46-.017-35.191.006-6.206.007-12.41-.006-18.616-.012-5.835-.004-11.67.02-17.505.004-2.14.003-4.28-.006-6.42-.01-2.924.003-5.848.023-8.772l-.027-2.556c.092-7.007 2.07-12.295 6.953-17.382 4.685-3.516 9.923-6.266 15.027-9.123 2.54-1.422 5.073-2.857 7.607-4.292l3.78-2.137a742.257 742.257 0 0 0 13.792-7.991c13.75-8.143 27.613-16.096 41.5-24 7.39-4.211 14.727-8.514 22.071-12.805a1848.499 1848.499 0 0 1 19.042-10.972c3.011-1.72 6.003-3.47 8.993-5.227a1553.751 1553.751 0 0 1 35.867-20.44 1181.992 1181.992 0 0 0 24.194-13.727c10.19-5.893 19.582-9.934 31.146-4.704z" fill="#AFC5FF"></path>
    <path d="M58.784 180.43a554.122 554.122 0 0 1 8.904 5.006l3.292 1.865c2.248 1.274 4.494 2.55 6.74 3.83 4.018 2.288 8.046 4.56 12.074 6.833 3.79 2.138 7.577 4.282 11.363 6.426 3.821 2.162 7.643 4.322 11.464 6.482l5.746 3.247c4.84 2.737 9.68 5.47 14.523 8.2 9.888 5.575 19.76 11.172 29.559 16.903 4.867 2.838 9.791 5.556 14.743 8.243 4.547 2.484 9.052 5.04 13.558 7.596l6.07 3.438 3.103 1.758c3.943 2.232 7.888 4.458 11.833 6.685 3.802 2.146 7.603 4.297 11.402 6.448 1.915 1.084 3.83 2.167 5.746 3.248 2.826 1.596 5.649 3.197 8.471 4.798l2.538 1.43C258.11 293.22 258.11 293.22 262 301c1.837 16.937 1.147 34.21 1.134 51.225-.003 4.376 0 8.752.001 13.128.002 7.373 0 14.746-.005 22.12-.005 7.469-.005 14.937 0 22.405.015 24.041-.01 48.082-.13 72.123l-.01 2.091c-.037 7.604-.094 15.206-.207 22.808-.027 1.92-.048 3.84-.061 5.76-.02 2.54-.065 5.08-.117 7.62l-.003 2.153c-.145 4.93-1.526 7.76-4.602 11.569-4.993 3.871-8.953 4.644-15.242 4.378-7.617-1.046-13.661-5.482-19.97-9.609-2.549-1.618-5.116-3.055-7.788-4.457-6.173-3.295-12.033-7.055-17.924-10.823a547.795 547.795 0 0 0-14.507-8.953c-4.5-2.69-8.97-5.43-13.445-8.161a2344.175 2344.175 0 0 0-25.39-15.292c-4.684-2.792-9.23-5.734-13.752-8.78-2.221-1.46-4.49-2.724-6.858-3.929-5.141-2.745-10.031-5.8-14.938-8.937A671.69 671.69 0 0 0 87.06 446.5l-2.78-1.634-5.544-3.255c-11.364-6.686-22.669-13.442-33.696-20.674a134.56 134.56 0 0 0-6.758-4.031c-5.054-2.933-10.057-7.327-12.007-13.01-1.772-9.5-1.56-19.026-1.537-28.653a5612.224 5612.224 0 0 1-.01-22.087c.005-5.635 0-11.27-.003-16.905-.003-9.458.001-18.915.01-28.373.012-10.925.008-21.85-.003-32.775-.009-9.395-.01-18.79-.005-28.184.003-5.605.004-11.21-.003-16.815-.006-5.267-.002-10.534.01-15.801.002-1.93.002-3.86-.003-5.79-.005-2.64.002-5.28.012-7.918l-.014-2.3c.047-6.449.827-12.114 4.455-17.608 9.543-9.119 19.214-5.594 29.596-.256z" fill="#3A6CE7"></path>
    <path d="m310.19 35.875 3.326 1.816a467.307 467.307 0 0 1 17.325 10.031c2.737 1.619 5.544 3.03 8.411 4.403 13.335 6.566 26.346 13.804 39.13 21.383 2.682 1.528 5.406 2.894 8.183 4.242 6.33 3.095 12.358 6.651 18.432 10.213a238.27 238.27 0 0 0 16.248 8.647c4.06 2.047 7.944 4.372 11.855 6.687 3.49 2.049 7.033 3.984 10.594 5.907 2.682 1.456 5.354 2.926 8.023 4.406 1.74.964 3.482 1.927 5.223 2.89l2.635 1.459c4.716 2.596 9.453 5.08 14.302 7.416 6.655 3.3 11.384 6.601 14.488 13.582 1.078 3.46.758 5.619-.363 9.043-4.923 7.819-13.138 11.617-21 16l-2.996 1.675a3830.078 3830.078 0 0 1-13.678 7.6c-7.055 3.9-14.085 7.839-21.076 11.85-10.092 5.79-20.218 11.52-30.352 17.238a9047.726 9047.726 0 0 0-8.586 4.856c-7.979 4.516-15.96 9.03-23.965 13.5l-3.367 1.88a5233.627 5233.627 0 0 1-6.382 3.557c-4.59 2.561-9.147 5.154-13.641 7.88-4.292 2.597-8.66 5.014-13.074 7.397-3.041 1.653-6.06 3.341-9.075 5.04l-3.174 1.787c-2.136 1.204-4.271 2.41-6.406 3.617-24.05 13.53-24.05 13.53-38.459 10.428-10.323-3.33-19.438-9.025-28.727-14.516-4.94-2.905-9.917-5.747-14.894-8.588a7448.507 7448.507 0 0 1-5.35-3.059c-9.287-5.308-18.628-10.516-27.987-15.699a2530.366 2530.366 0 0 1-45.452-25.77 527.494 527.494 0 0 0-14.422-8.083c-9.657-5.227-19.28-10.515-28.656-16.23-5.28-3.147-10.72-6.032-16.176-8.86-14.218-7.468-14.218-7.468-17.23-14.938-.951-3.492-.853-4.648.125-8.312 5.622-9.137 14.737-13.743 24.138-18.29 5.307-2.601 10.393-5.529 15.487-8.522 5.959-3.5 11.93-6.774 18.156-9.781 4.332-2.23 8.516-4.693 12.719-7.157 5.02-2.941 10.007-5.845 15.25-8.375 7.087-3.428 13.88-7.382 20.716-11.28A1006.31 1006.31 0 0 1 200.002 64c2.766-1.499 5.533-2.999 8.298-4.5 1.846-1.001 3.692-2.001 5.54-3 4.539-2.467 9.021-4.991 13.439-7.672a130.025 130.025 0 0 1 11.223-6.078c4.859-2.374 9.559-4.903 14.243-7.605 21.357-12.269 35.775-11.384 57.445.73z" fill="#7B9FF5"></path>
</svg><style>@media (prefers-color-scheme: light) { :root { filter: none; } }
@media (prefers-color-scheme: dark) { :root { filter: none; } }
</style></svg>